# xmcd
#
# Track frame offsets: 
#        150
#        14144
#        28426
#        43602
#        55693
#        74146
#        88239
#        108469
#        120295
#        137029
#        153921
#        174312
#        190000
#
# Disc length: 2734 seconds
#
# Revision: 0
# Processed by: cddbd v1.5.2PL0 Copyright (c) Steve Scherf et al.
# Submitted via: ExactAudioCopy v0.99pb5
#
DISCID=b50aac0d
DTITLE=8 Ball Aitkin - Behind The 8 Ball
DYEAR=2007
DGENRE=Country Blues
TTITLE0=Refugee
TTITLE1=All Alone
TTITLE2=Yes, I'm Worried Baby
TTITLE3=I'm A Man
TTITLE4=Walls Have Ears
TTITLE5=All The Money
TTITLE6=Crossroad Child
TTITLE7=Shoot You Down
TTITLE8=Gypsy Man
TTITLE9=Burning Up Side
TTITLE10=Sun Go Down
TTITLE11=That Feeling
TTITLE12=Chheetah
EXTD=
EXTT0=
EXTT1=
EXTT2=
EXTT3=
EXTT4=
EXTT5=
EXTT6=
EXTT7=
EXTT8=
EXTT9=
EXTT10=
EXTT11=
EXTT12=
PLAYORDER=
